<svg width="40" height="40" viewBox="0 0 40 40" fill="none" xmlns="http://www.w3.org/2000/svg">
<rect x="0.5" y="0.5" width="39" height="39" rx="19.5" stroke="#A0AEC0"/>
<path d="M20 18.7666C19.6583 18.7666 19.375 18.4833 19.375 18.1416V15.3666C19.375 15.025 19.6583 14.7416 20 14.7416C20.3417 14.7416 20.625 15.025 20.625 15.3666V18.1416C20.625 18.4916 20.3417 18.7666 20 18.7666Z" fill="#718096"/>
<path d="M20.0167 26.9583C17.8667 26.9583 15.725 26.6167 13.6833 25.9333C12.925 25.6833 12.35 25.1417 12.1 24.4583C11.85 23.775 11.9333 22.9917 12.3417 22.3083L13.4 20.5417C13.6333 20.15 13.8417 19.4167 13.8417 18.9583V17.2083C13.8417 13.8 16.6083 11.0333 20.0167 11.0333C23.425 11.0333 26.1917 13.8 26.1917 17.2083V18.9583C26.1917 19.4083 26.4 20.15 26.6333 20.5417L27.6917 22.3083C28.0833 22.9583 28.15 23.7333 27.8917 24.4417C27.6333 25.15 27.0667 25.6917 26.35 25.9333C24.3083 26.625 22.1667 26.9583 20.0167 26.9583ZM20.0167 12.2917C17.3 12.2917 15.0917 14.5 15.0917 17.2167V18.9667C15.0917 19.6417 14.825 20.6167 14.475 21.1917L13.4167 22.9667C13.2 23.325 13.15 23.7083 13.275 24.0417C13.4 24.375 13.6833 24.625 14.0833 24.7583C17.9167 26.0333 22.1333 26.0333 25.9667 24.7583C26.325 24.6417 26.6 24.375 26.725 24.025C26.8583 23.675 26.8167 23.2917 26.625 22.9667L25.5667 21.2C25.2167 20.625 24.95 19.65 24.95 18.975V17.225C24.9417 14.5 22.7333 12.2917 20.0167 12.2917Z" fill="#718096"/>
<path d="M20 29.0833C19.1083 29.0833 18.2333 28.7167 17.6 28.0833C16.9667 27.45 16.6 26.575 16.6 25.6833H17.85C17.85 26.25 18.0833 26.8 18.4833 27.2C18.8833 27.6 19.4333 27.8333 20 27.8333C21.1833 27.8333 22.15 26.8667 22.15 25.6833H23.4C23.4 27.5583 21.875 29.0833 20 29.0833Z" fill="#718096"/>
<rect x="28" width="12" height="12" rx="6" fill="#F96767"/>
<path d="M33.9261 8.55966C33.6449 8.55966 33.3942 8.51136 33.174 8.41477C32.9553 8.31818 32.7813 8.18395 32.652 8.01207C32.5241 7.83878 32.4545 7.63778 32.4432 7.40909H32.9801C32.9915 7.54972 33.0398 7.67116 33.125 7.77344C33.2102 7.87429 33.3217 7.95241 33.4595 8.00781C33.5973 8.06321 33.75 8.09091 33.9176 8.09091C34.1051 8.09091 34.2713 8.05824 34.4162 7.9929C34.5611 7.92756 34.6747 7.83665 34.7571 7.72017C34.8395 7.60369 34.8807 7.46875 34.8807 7.31534C34.8807 7.15483 34.8409 7.01349 34.7614 6.89134C34.6818 6.76776 34.5653 6.67116 34.4119 6.60156C34.2585 6.53196 34.071 6.49716 33.8494 6.49716H33.5V6.02841H33.8494C34.0227 6.02841 34.1747 5.99716 34.3054 5.93466C34.4375 5.87216 34.5405 5.78409 34.6143 5.67045C34.6896 5.55682 34.7273 5.4233 34.7273 5.26989C34.7273 5.12216 34.6946 4.99361 34.6293 4.88423C34.5639 4.77486 34.4716 4.68963 34.3523 4.62855C34.2344 4.56747 34.0952 4.53693 33.9347 4.53693C33.7841 4.53693 33.642 4.56463 33.5085 4.62003C33.3764 4.67401 33.2685 4.75284 33.1847 4.85653C33.1009 4.95881 33.0554 5.08239 33.0483 5.22727H32.5369C32.5455 4.99858 32.6143 4.7983 32.7436 4.62642C32.8729 4.45312 33.0419 4.31818 33.2507 4.22159C33.4609 4.125 33.6918 4.0767 33.9432 4.0767C34.2131 4.0767 34.4446 4.13139 34.6378 4.24077C34.831 4.34872 34.9794 4.49148 35.0831 4.66903C35.1868 4.84659 35.2386 5.03835 35.2386 5.24432C35.2386 5.49006 35.174 5.69957 35.0447 5.87287C34.9169 6.04616 34.7429 6.16619 34.5227 6.23295V6.26705C34.7983 6.3125 35.0135 6.42969 35.1683 6.61861C35.3232 6.80611 35.4006 7.03835 35.4006 7.31534C35.4006 7.55256 35.3359 7.76562 35.2067 7.95455C35.0788 8.14205 34.9041 8.28977 34.6825 8.39773C34.4609 8.50568 34.2088 8.55966 33.9261 8.55966Z" fill="#FAFAFA"/>
</svg>
