<svg width="20" height="20" viewBox="0 0 20 20" fill="#000" xmlns="http://www.w3.org/2000/svg">
    <path
        d="M10.125 16.125C9.78333 16.125 9.5 15.8417 9.5 15.5V13.75C9.5 13.4083 9.78333 13.125 10.125 13.125C10.4667 13.125 10.75 13.4083 10.75 13.75V15.5C10.75 15.8417 10.4667 16.125 10.125 16.125Z"
        fill="#70747B" />
    <path
        d="M14.9166 18.9583H5.33331V17.5C5.33331 16.2333 6.35831 15.2083 7.62498 15.2083H12.625C13.8916 15.2083 14.9166 16.2333 14.9166 17.5V18.9583ZM6.58331 17.7083H13.6666V17.5C13.6666 16.925 13.2 16.4583 12.625 16.4583H7.62498C7.04998 16.4583 6.58331 16.925 6.58331 17.5V17.7083Z"
        fill="#70747B" />
    <path
        d="M15.125 18.9583H5.125C4.78333 18.9583 4.5 18.675 4.5 18.3333C4.5 17.9917 4.78333 17.7083 5.125 17.7083H15.125C15.4667 17.7083 15.75 17.9917 15.75 18.3333C15.75 18.675 15.4667 18.9583 15.125 18.9583Z"
        fill="#70747B" />
    <path
        d="M15.3583 10.3667C15.1833 10.3667 15.0083 10.2917 14.8833 10.15C14.725 9.96666 14.6833 9.70833 14.7833 9.49166C15.0667 8.84166 15.2083 8.14999 15.2083 7.42499V4.92499C15.2083 4.63333 15.1583 4.34999 15.0583 4.04999C15.05 4.02499 15.0417 3.99166 15.0333 3.95833C15.0083 3.83333 15 3.70833 15 3.59166C15 3.24999 15.2833 2.96666 15.625 2.96666H16.125C17.6167 2.96666 18.8333 4.21666 18.8333 5.75833C18.8333 7.03333 18.3083 8.29166 17.4 9.19999C17.3833 9.21666 17.3333 9.25833 17.325 9.26666C16.8333 9.67499 16.275 10.1333 15.525 10.3417C15.4667 10.3583 15.4167 10.3667 15.3583 10.3667ZM16.4 4.24166C16.4417 4.46666 16.4583 4.69999 16.4583 4.92499V7.42499C16.4583 7.76666 16.4333 8.09166 16.3833 8.42499C16.4333 8.38333 16.475 8.34999 16.525 8.30833C17.1917 7.64166 17.5833 6.70833 17.5833 5.75833C17.5833 5.00833 17.075 4.37499 16.4 4.24166Z"
        fill="#70747B" />
    <path
        d="M4.65002 10.3333C4.58335 10.3333 4.52502 10.325 4.45835 10.3C3.77502 10.0833 3.13335 9.68333 2.60002 9.15C1.64169 8.09167 1.16669 6.93333 1.16669 5.70833C1.16669 4.19167 2.35835 3 3.87502 3H4.41669C4.62502 3 4.82502 3.10833 4.94169 3.28333C5.05835 3.45833 5.07502 3.68333 4.99169 3.875C4.85835 4.175 4.79169 4.51667 4.79169 4.875V7.375C4.79169 8.09167 4.93335 8.79167 5.22502 9.45833C5.32502 9.68333 5.27502 9.94167 5.11669 10.125C4.99169 10.2583 4.82502 10.3333 4.65002 10.3333ZM3.58335 4.275C2.90835 4.40833 2.41669 4.99167 2.41669 5.70833C2.41669 6.61667 2.78335 7.49167 3.50835 8.29167C3.54169 8.33333 3.58335 8.36667 3.62502 8.4C3.56669 8.05833 3.54169 7.71667 3.54169 7.375V4.875C3.54169 4.675 3.55835 4.475 3.58335 4.275Z"
        fill="#70747B" />
    <path
        d="M10 13.9583C6.44169 13.9583 3.54169 11.0583 3.54169 7.50001V5.00001C3.54169 2.81667 5.31669 1.04167 7.50002 1.04167H12.5C14.6834 1.04167 16.4584 2.81667 16.4584 5.00001V7.50001C16.4584 11.0583 13.5584 13.9583 10 13.9583ZM7.50002 2.29167C6.00835 2.29167 4.79169 3.50834 4.79169 5.00001V7.50001C4.79169 10.375 7.12502 12.7083 10 12.7083C12.875 12.7083 15.2084 10.375 15.2084 7.50001V5.00001C15.2084 3.50834 13.9917 2.29167 12.5 2.29167H7.50002Z"
        fill="#70747B" />
</svg>