<svg width="21" height="20" viewBox="0 0 21 20" fill="none" xmlns="http://www.w3.org/2000/svg">
<path d="M9.61664 18.875C9.21664 18.875 8.82498 18.775 8.45831 18.575C7.72498 18.1667 7.28331 17.425 7.28331 16.5917V12.175C7.28331 11.7583 7.00831 11.1333 6.74998 10.8167L3.63331 7.51667C3.10831 6.99167 2.70831 6.09167 2.70831 5.41667V3.5C2.70831 2.16667 3.71665 1.125 4.99998 1.125H16C17.2666 1.125 18.2916 2.15 18.2916 3.41667V5.25C18.2916 6.125 17.7666 7.11667 17.275 7.60833L13.6666 10.8C13.3166 11.0917 13.0416 11.7333 13.0416 12.25V15.8333C13.0416 16.575 12.575 17.4333 11.9916 17.7833L10.8416 18.525C10.4666 18.7583 10.0416 18.875 9.61664 18.875ZM4.99998 2.375C4.41665 2.375 3.95831 2.86667 3.95831 3.5V5.41667C3.95831 5.725 4.20831 6.325 4.52498 6.64167L7.69998 9.98333C8.12498 10.5083 8.54165 11.3833 8.54165 12.1667V16.5833C8.54165 17.125 8.91665 17.3917 9.07498 17.475C9.42498 17.6667 9.84998 17.6667 10.175 17.4667L11.3333 16.725C11.5666 16.5833 11.8 16.1333 11.8 15.8333V12.25C11.8 11.3583 12.2333 10.375 12.8583 9.85L16.425 6.69167C16.7083 6.40833 17.05 5.73333 17.05 5.24167V3.41667C17.05 2.84167 16.5833 2.375 16.0083 2.375H4.99998Z" fill="#70747B"/>
<path d="M5.5 8.95834C5.38333 8.95834 5.275 8.925 5.16666 8.86667C4.875 8.68334 4.78333 8.29167 4.96666 8L9.075 1.41667C9.25833 1.125 9.64166 1.03334 9.93333 1.21667C10.225 1.4 10.3167 1.78334 10.1333 2.075L6.025 8.65834C5.90833 8.85 5.70833 8.95834 5.5 8.95834Z" fill="#70747B"/>
</svg>
