<svg width="28" height="28" viewBox="0 0 28 28" fill="none" xmlns="http://www.w3.org/2000/svg">
<path d="M3.76828 1.16672H13.2533C14.0466 1.16672 14.6883 1.82005 14.6883 2.62505V4.22338C14.6883 4.80672 14.3266 5.53005 13.965 5.89172L10.8849 8.66838C10.4533 9.03005 10.1733 9.75338 10.1733 10.3367V13.4634C10.1733 13.8951 9.88162 14.4784 9.53162 14.7001L8.51662 15.3651C7.58328 15.9484 6.28828 15.2951 6.28828 14.1284V10.2667C6.28828 9.75338 5.99662 9.10005 5.71662 8.73838L2.98662 5.82172C2.62495 5.46005 2.33328 4.80672 2.33328 4.37505V2.69505C2.33328 1.82005 2.97495 1.16672 3.76828 1.16672Z" fill="#FCCE44"/>
<path d="M19.8333 2.33328H17.0333C16.7066 2.33328 16.4499 2.58995 16.4499 2.91662C16.4499 3.47662 16.4499 4.22328 16.4499 4.22328C16.4499 5.37828 15.8316 6.50995 15.2249 7.12828L12.0516 9.96328C12.0166 10.0449 11.9583 10.1616 11.9233 10.2549V13.4633C11.9233 14.5249 11.2933 15.6799 10.4299 16.2049L9.47328 16.8233C8.93661 17.1616 8.34161 17.3249 7.74661 17.3249C7.20995 17.3249 6.67328 17.1849 6.18328 16.9166C5.55744 16.57 5.09051 16.0406 4.81531 15.4203C4.69911 15.1583 4.66662 14.8695 4.66662 14.5829V11.9116C4.66662 11.7599 4.60828 11.6083 4.49162 11.5033L3.32495 10.3366C2.96328 9.96328 2.33328 10.2199 2.33328 10.7449V19.8333C2.33328 23.0533 4.94662 25.6666 8.16662 25.6666H19.8333C23.0533 25.6666 25.6666 23.0533 25.6666 19.8333V8.16662C25.6666 4.94662 23.0533 2.33328 19.8333 2.33328ZM20.9999 20.7083H12.8333C12.3549 20.7083 11.9583 20.3116 11.9583 19.8333C11.9583 19.3549 12.3549 18.9583 12.8333 18.9583H20.9999C21.4783 18.9583 21.8749 19.3549 21.8749 19.8333C21.8749 20.3116 21.4783 20.7083 20.9999 20.7083ZM20.9999 16.0416H15.1666C14.6883 16.0416 14.2916 15.6449 14.2916 15.1666C14.2916 14.6883 14.6883 14.2916 15.1666 14.2916H20.9999C21.4783 14.2916 21.8749 14.6883 21.8749 15.1666C21.8749 15.6449 21.4783 16.0416 20.9999 16.0416Z" fill="#FCCE44"/>
</svg>
