<svg width="20" height="20" viewBox="0 0 20 20" fill="none" xmlns="http://www.w3.org/2000/svg">
    <path
        d="M17.575 5.81667C16.8667 5.03334 15.6917 4.64167 13.9667 4.64167H13.7667V4.60834C13.7667 3.20834 13.7667 1.47501 10.6333 1.47501H9.36666C6.23332 1.47501 6.23332 3.20834 6.23332 4.60834V4.64167H6.03332C4.30832 4.64167 3.12499 5.03334 2.42499 5.81667C1.59999 6.74167 1.62499 7.96667 1.70832 8.80834L1.71666 8.86667L1.77074 9.49764C1.78394 9.65159 1.86744 9.79096 1.99722 9.8748C2.22356 10.021 2.46247 10.1727 2.69166 10.3C2.80832 10.375 2.93332 10.4417 3.05832 10.5083C3.99999 11.025 5.00832 11.4333 6.04166 11.7167C6.06666 13.875 7.83332 15.625 9.99999 15.625C12.1833 15.625 13.9583 13.85 13.9583 11.6667V11.6333C15.0083 11.3167 16.0167 10.875 16.9583 10.325C17.0083 10.3 17.0417 10.275 17.0833 10.25C17.4015 10.0771 17.7311 9.85252 18.0341 9.63821C18.1505 9.55591 18.2254 9.4273 18.2408 9.2856L18.2917 8.81667C18.3 8.76667 18.3 8.72501 18.3083 8.66667C18.375 7.83334 18.3583 6.68334 17.575 5.81667ZM7.42499 4.60834C7.42499 3.19167 7.42499 2.65834 9.36666 2.65834H10.6333C12.575 2.65834 12.575 3.19167 12.575 4.60834V4.64167H7.42499V4.60834ZM9.99999 14.375C8.62499 14.375 7.48332 13.3417 7.31666 12.0083C7.29999 11.9 7.29166 11.7833 7.29166 11.6667C7.29166 10.175 8.50832 8.95834 9.99999 8.95834C11.4917 8.95834 12.7083 10.175 12.7083 11.6667C12.7083 11.7667 12.7 11.8583 12.6917 11.95V11.9583C12.5417 13.3167 11.3917 14.375 9.99999 14.375Z"
        fill="#222222" />
    <path
        d="M9.525 13.3583C9.36667 13.3583 9.20834 13.3 9.08334 13.175L8.25834 12.3583C8.01667 12.1167 8.01667 11.7167 8.25834 11.475C8.5 11.2333 8.9 11.2333 9.14167 11.475L9.54167 11.875L10.8833 10.6417C11.1333 10.4083 11.5333 10.425 11.7667 10.675C12 10.925 11.9833 11.325 11.7333 11.5583L9.95834 13.2C9.825 13.3 9.675 13.3583 9.525 13.3583Z"
        fill="#222222" />
    <path
        d="M17.5347 11.4426C17.7419 11.3274 18.0108 11.4943 17.9892 11.7304L17.693 14.9676C17.518 16.6342 16.8347 18.3342 13.168 18.3342H6.81799C3.15132 18.3342 2.46799 16.6342 2.30132 14.9759L2.0131 11.8898C1.99072 11.6502 2.24698 11.4883 2.45966 11.6009C3.10966 11.9592 3.78466 12.2759 4.47632 12.5259C4.73466 12.6176 4.91799 12.8342 4.99299 13.1009C5.61799 15.2676 7.63465 16.8759 10.0013 16.8759C12.4097 16.8759 14.443 15.2342 15.0347 12.9842C15.1013 12.7176 15.2847 12.5009 15.543 12.4009C16.243 12.1259 16.9097 11.8009 17.5347 11.4426Z"
        fill="#222222" />
</svg>