<svg width="17" height="17" viewBox="0 0 17 17" fill="none" xmlns="http://www.w3.org/2000/svg">
<path fill-rule="evenodd" clip-rule="evenodd" d="M4.20835 1.91666C1.91669 1.91666 1.91669 2.08999 1.91669 4.20832V4.22916C1.91669 5.15166 1.91669 5.81832 2.14252 6.09999C2.36335 6.37332 3.01919 6.49999 4.20835 6.49999C5.39752 6.49999 6.05335 6.37249 6.27419 6.09916C6.50002 5.81832 6.50002 5.15166 6.50002 4.22832C6.50002 2.08999 6.50002 1.91666 4.20835 1.91666ZM4.20835 7.74999C2.80335 7.74999 1.74919 7.60249 1.17002 6.88332C0.666687 6.25916 0.666687 5.40749 0.666687 4.22916L1.29169 4.20832H0.666687C0.666687 1.81666 0.817521 0.666656 4.20835 0.666656C7.59919 0.666656 7.75002 1.81666 7.75002 4.20832C7.75002 5.40666 7.75002 6.25916 7.24669 6.88332C6.66752 7.60249 5.61335 7.74999 4.20835 7.74999Z" fill="#718096"/>
<path fill-rule="evenodd" clip-rule="evenodd" d="M13.375 1.91666C11.0834 1.91666 11.0834 2.08999 11.0834 4.20832V4.22916C11.0834 5.15166 11.0834 5.81832 11.3092 6.09999C11.53 6.37332 12.1859 6.49999 13.375 6.49999C14.5642 6.49999 15.22 6.37249 15.4409 6.09916C15.6667 5.81832 15.6667 5.15166 15.6667 4.22832C15.6667 2.08999 15.6667 1.91666 13.375 1.91666ZM13.375 7.74999C11.97 7.74999 10.9159 7.60249 10.3367 6.88332C9.83337 6.25916 9.83337 5.40749 9.83337 4.22916L10.4584 4.20832H9.83337C9.83337 1.81666 9.98421 0.666656 13.375 0.666656C16.7659 0.666656 16.9167 1.81666 16.9167 4.20832C16.9167 5.40666 16.9167 6.25916 16.4134 6.88332C15.8342 7.60249 14.78 7.74999 13.375 7.74999Z" fill="#718096"/>
<path fill-rule="evenodd" clip-rule="evenodd" d="M4.20835 11.0833C1.91669 11.0833 1.91669 11.2566 1.91669 13.375V13.3958C1.91669 14.3183 1.91669 14.985 2.14252 15.2666C2.36335 15.54 3.01919 15.6666 4.20835 15.6666C5.39752 15.6666 6.05335 15.5391 6.27419 15.2658C6.50002 14.985 6.50002 14.3183 6.50002 13.395C6.50002 11.2566 6.50002 11.0833 4.20835 11.0833ZM4.20835 16.9166C2.80335 16.9166 1.74919 16.7691 1.17002 16.05C0.666687 15.4258 0.666687 14.5741 0.666687 13.3958L1.29169 13.375H0.666687C0.666687 10.9833 0.817521 9.83331 4.20835 9.83331C7.59919 9.83331 7.75002 10.9833 7.75002 13.375C7.75002 14.5733 7.75002 15.4258 7.24669 16.05C6.66752 16.7691 5.61335 16.9166 4.20835 16.9166Z" fill="#718096"/>
<path fill-rule="evenodd" clip-rule="evenodd" d="M13.375 11.0833C11.0834 11.0833 11.0834 11.2566 11.0834 13.375V13.3958C11.0834 14.3183 11.0834 14.985 11.3092 15.2666C11.53 15.54 12.1859 15.6666 13.375 15.6666C14.5642 15.6666 15.22 15.5391 15.4409 15.2658C15.6667 14.985 15.6667 14.3183 15.6667 13.395C15.6667 11.2566 15.6667 11.0833 13.375 11.0833ZM13.375 16.9166C11.97 16.9166 10.9159 16.7691 10.3367 16.05C9.83337 15.4258 9.83337 14.5741 9.83337 13.3958L10.4584 13.375H9.83337C9.83337 10.9833 9.98421 9.83331 13.375 9.83331C16.7659 9.83331 16.9167 10.9833 16.9167 13.375C16.9167 14.5733 16.9167 15.4258 16.4134 16.05C15.8342 16.7691 14.78 16.9166 13.375 16.9166Z" fill="#718096"/>
</svg>
