<svg width="20" height="20" viewBox="0 0 20 20" fill="none" xmlns="http://www.w3.org/2000/svg">
<path fill-rule="evenodd" clip-rule="evenodd" d="M18.2406 13.3826H14.8673C13.2865 13.3826 11.9998 12.0968 11.999 10.5168C11.999 8.93514 13.2856 7.64848 14.8673 7.64764H18.2406C18.5856 7.64764 18.8656 7.92764 18.8656 8.27264C18.8656 8.61764 18.5856 8.89764 18.2406 8.89764H14.8673C13.9748 8.89848 13.249 9.62431 13.249 10.516C13.249 11.4068 13.9756 12.1326 14.8673 12.1326H18.2406C18.5856 12.1326 18.8656 12.4126 18.8656 12.7576C18.8656 13.1026 18.5856 13.3826 18.2406 13.3826Z" fill="#70747B"/>
<path fill-rule="evenodd" clip-rule="evenodd" d="M15.2486 11.0893H14.9886C14.6436 11.0893 14.3636 10.8093 14.3636 10.4643C14.3636 10.1193 14.6436 9.83931 14.9886 9.83931H15.2486C15.5936 9.83931 15.8736 10.1193 15.8736 10.4643C15.8736 10.8093 15.5936 11.0893 15.2486 11.0893Z" fill="#70747B"/>
<mask id="mask0_0_785" style="mask-type:luminance" maskUnits="userSpaceOnUse" x="1" y="2" width="18" height="17">
<path fill-rule="evenodd" clip-rule="evenodd" d="M1.66669 2.63631H18.8655V18.6137H1.66669V2.63631Z" fill="white"/>
</mask>
<g mask="url(#mask0_0_785)">
<path fill-rule="evenodd" clip-rule="evenodd" d="M6.66471 3.88631C4.59805 3.88631 2.91638 5.56797 2.91638 7.63464V13.6155C2.91638 15.6821 4.59805 17.3638 6.66471 17.3638H13.868C15.9347 17.3638 17.6155 15.6821 17.6155 13.6155V7.63464C17.6155 5.56797 15.9347 3.88631 13.868 3.88631H6.66471ZM13.868 18.6138H6.66471C3.90888 18.6138 1.66638 16.3713 1.66638 13.6155V7.63464C1.66638 4.87797 3.90888 2.63631 6.66471 2.63631H13.868C16.6239 2.63631 18.8655 4.87797 18.8655 7.63464V13.6155C18.8655 16.3713 16.6239 18.6138 13.868 18.6138Z" fill="#70747B"/>
</g>
<path fill-rule="evenodd" clip-rule="evenodd" d="M10.5705 7.66806H6.07135C5.72635 7.66806 5.44635 7.38806 5.44635 7.04306C5.44635 6.69806 5.72635 6.41806 6.07135 6.41806H10.5705C10.9155 6.41806 11.1955 6.69806 11.1955 7.04306C11.1955 7.38806 10.9155 7.66806 10.5705 7.66806Z" fill="#70747B"/>
</svg>
