<svg width="20" height="20" viewBox="0 0 20 20" fill="none" xmlns="http://www.w3.org/2000/svg">
<path d="M9.99997 18.8583C9.44164 18.8583 8.87497 18.7333 8.4333 18.475L3.84997 15.8333C1.9833 14.575 1.86664 14.3833 1.86664 12.4083V7.59166C1.86664 5.61666 1.97497 5.425 3.8083 4.18333L8.42497 1.51667C9.29997 1.00833 10.675 1.00833 11.55 1.51667L16.15 4.16667C18.0166 5.425 18.1333 5.61666 18.1333 7.59166V12.4C18.1333 14.375 18.025 14.5667 16.1916 15.8083L11.575 18.475C11.125 18.7333 10.5583 18.8583 9.99997 18.8583ZM9.99997 2.39167C9.64997 2.39167 9.3083 2.45833 9.06664 2.6L4.4833 5.25C3.12497 6.16667 3.12497 6.16666 3.12497 7.59166V12.4C3.12497 13.825 3.12497 13.825 4.51664 14.7667L9.06664 17.3917C9.5583 17.675 10.45 17.675 10.9416 17.3917L15.525 14.7417C16.875 13.825 16.875 13.825 16.875 12.4V7.59166C16.875 6.16666 16.875 6.16667 15.4833 5.225L10.9333 2.6C10.6916 2.45833 10.35 2.39167 9.99997 2.39167Z" fill="#70747B"/>
<path d="M10 13.125C8.275 13.125 6.875 11.725 6.875 10C6.875 8.275 8.275 6.875 10 6.875C11.725 6.875 13.125 8.275 13.125 10C13.125 11.725 11.725 13.125 10 13.125ZM10 8.125C8.96667 8.125 8.125 8.96667 8.125 10C8.125 11.0333 8.96667 11.875 10 11.875C11.0333 11.875 11.875 11.0333 11.875 10C11.875 8.96667 11.0333 8.125 10 8.125Z" fill="#70747B"/>
</svg>
