<svg width="20" height="20" viewBox="0 0 20 20" fill="none" xmlns="http://www.w3.org/2000/svg">
<path d="M9.99999 16.0416C6.66666 16.0416 3.95833 13.3333 3.95833 9.99998C3.95833 6.66665 6.66666 3.95831 9.99999 3.95831C13.3333 3.95831 16.0417 6.66665 16.0417 9.99998C16.0417 13.3333 13.3333 16.0416 9.99999 16.0416ZM9.99999 5.20831C7.35833 5.20831 5.20833 7.35831 5.20833 9.99998C5.20833 12.6416 7.35833 14.7916 9.99999 14.7916C12.6417 14.7916 14.7917 12.6416 14.7917 9.99998C14.7917 7.35831 12.6417 5.20831 9.99999 5.20831Z" fill="#222222"/>
<path d="M9.99999 19.1333C9.54166 19.1333 9.16666 18.7916 9.16666 18.3333V18.2666C9.16666 17.8083 9.54166 17.4333 9.99999 17.4333C10.4583 17.4333 10.8333 17.8083 10.8333 18.2666C10.8333 18.725 10.4583 19.1333 9.99999 19.1333ZM15.95 16.7833C15.7333 16.7833 15.525 16.7 15.3583 16.5416L15.25 16.4333C14.925 16.1083 14.925 15.5833 15.25 15.2583C15.575 14.9333 16.1 14.9333 16.425 15.2583L16.5333 15.3666C16.8583 15.6916 16.8583 16.2166 16.5333 16.5416C16.375 16.7 16.1667 16.7833 15.95 16.7833ZM4.04999 16.7833C3.83333 16.7833 3.62499 16.7 3.45833 16.5416C3.13333 16.2166 3.13333 15.6916 3.45833 15.3666L3.56666 15.2583C3.89166 14.9333 4.41666 14.9333 4.74166 15.2583C5.06666 15.5833 5.06666 16.1083 4.74166 16.4333L4.63333 16.5416C4.47499 16.7 4.25833 16.7833 4.04999 16.7833ZM18.3333 10.8333H18.2667C17.8083 10.8333 17.4333 10.4583 17.4333 9.99998C17.4333 9.54165 17.8083 9.16665 18.2667 9.16665C18.725 9.16665 19.1333 9.54165 19.1333 9.99998C19.1333 10.4583 18.7917 10.8333 18.3333 10.8333ZM1.73333 10.8333H1.66666C1.20833 10.8333 0.833328 10.4583 0.833328 9.99998C0.833328 9.54165 1.20833 9.16665 1.66666 9.16665C2.12499 9.16665 2.53333 9.54165 2.53333 9.99998C2.53333 10.4583 2.19166 10.8333 1.73333 10.8333ZM15.8417 4.99165C15.625 4.99165 15.4167 4.90831 15.25 4.74998C14.925 4.42498 14.925 3.89998 15.25 3.57498L15.3583 3.46665C15.6833 3.14165 16.2083 3.14165 16.5333 3.46665C16.8583 3.79165 16.8583 4.31665 16.5333 4.64165L16.425 4.74998C16.2667 4.90831 16.0583 4.99165 15.8417 4.99165ZM4.15833 4.99165C3.94166 4.99165 3.73333 4.90831 3.56666 4.74998L3.45833 4.63331C3.13333 4.30831 3.13333 3.78331 3.45833 3.45831C3.78333 3.13331 4.30833 3.13331 4.63333 3.45831L4.74166 3.56665C5.06666 3.89165 5.06666 4.41665 4.74166 4.74165C4.58333 4.90831 4.36666 4.99165 4.15833 4.99165ZM9.99999 2.53331C9.54166 2.53331 9.16666 2.19165 9.16666 1.73331V1.66665C9.16666 1.20831 9.54166 0.833313 9.99999 0.833313C10.4583 0.833313 10.8333 1.20831 10.8333 1.66665C10.8333 2.12498 10.4583 2.53331 9.99999 2.53331Z" fill="#222222"/>
</svg>
