<svg width="28" height="28" viewBox="0 0 28 28" fill="none" xmlns="http://www.w3.org/2000/svg">
    <path
        d="M10.4999 2.33328C7.44328 2.33328 4.95828 4.81828 4.95828 7.87495C4.95828 10.8733 7.30328 13.3 10.36 13.405C10.4533 13.3933 10.5466 13.3933 10.6166 13.405C10.64 13.405 10.6516 13.405 10.6749 13.405C10.6866 13.405 10.6866 13.405 10.6983 13.405C13.685 13.3 16.03 10.8733 16.0416 7.87495C16.0416 4.81828 13.5566 2.33328 10.4999 2.33328Z"
        fill="#222222" />
    <path
        d="M16.4267 16.5083C13.1717 14.3383 7.86332 14.3383 4.58499 16.5083C3.10332 17.5 2.28665 18.8417 2.28665 20.2767C2.28665 21.7117 3.10332 23.0417 4.57332 24.0217C6.20665 25.1183 8.35332 25.6667 10.5 25.6667C12.6467 25.6667 14.7933 25.1183 16.4267 24.0217C17.8967 23.03 18.7133 21.7 18.7133 20.2533C18.7017 18.8183 17.8967 17.4883 16.4267 16.5083Z"
        fill="#222222" />
    <path
        d="M23.3216 8.56334C23.5083 10.8267 21.8983 12.81 19.67 13.0783C19.6583 13.0783 19.6583 13.0783 19.6466 13.0783H19.6116C19.5416 13.0783 19.4716 13.0783 19.4133 13.1017C18.2816 13.16 17.2433 12.7983 16.4616 12.1333C17.6633 11.06 18.3516 9.45 18.2116 7.7C18.13 6.755 17.8033 5.89167 17.3133 5.15667C17.7566 4.935 18.27 4.795 18.795 4.74834C21.0816 4.55 23.1233 6.25334 23.3216 8.56334Z"
        fill="#222222" />
    <path
        d="M25.655 19.355C25.5617 20.4867 24.8383 21.4667 23.625 22.1317C22.4583 22.7733 20.9883 23.0767 19.53 23.0417C20.37 22.2833 20.86 21.3383 20.9533 20.335C21.07 18.8883 20.3817 17.5 19.005 16.3917C18.2233 15.7733 17.3133 15.2833 16.3217 14.9217C18.9 14.175 22.1433 14.6767 24.1383 16.2867C25.2117 17.15 25.76 18.235 25.655 19.355Z"
        fill="#222222" />
</svg>